# xmcd
#
# Track frame offsets: 
#        150
#        8111
#        29411
#        50850
#        65999
#        85949
#        105147
#        131024
#        147405
#        164486
#        190876
#
# Disc length: 3444 seconds
#
# Revision: 0
# Processed by: cddbd v1.5.2PL0 Copyright (c) Steve Scherf et al.
# Submitted via: ExactAudioCopy v1.0b3
#
DISCID=9d0d720b
DTITLE=Panama Judas - What Needs To Be Said And How To Say It
DYEAR=2012
DGENRE=Blues
TTITLE0=Strangle My Quiet Time
TTITLE1=The Bluebird's Escape
TTITLE2=Ode To A Rational Man
TTITLE3=My Time
TTITLE4=Little Box
TTITLE5=Little Dead Louie
TTITLE6=I Let You Leave
TTITLE7=I'll Bring You Hell
TTITLE8=Roll Up
TTITLE9=Loose Tongue
TTITLE10=Time Won't Change
EXTD=
EXTT0=
EXTT1=
EXTT2=
EXTT3=
EXTT4=
EXTT5=
EXTT6=
EXTT7=
EXTT8=
EXTT9=
EXTT10=
PLAYORDER=
